<svg width="80" height="80" viewBox="0 0 80 80" fill="none" xmlns="http://www.w3.org/2000/svg">
<path d="M40 80C62.0625 80 80 62.0625 80 40C80 17.9375 62.0625 0 40 0C17.9375 0 0 17.9375 0 40C0 62.0625 17.9375 80 40 80Z" fill="#F16567"/>
<path d="M40.0776 31.9883C39.065 31.9883 38.093 32.1908 37.1749 32.5958C36.2433 33.0009 35.4198 33.5814 34.7042 34.3375C33.9887 35.08 33.4486 35.9441 33.0571 36.9296C32.6791 37.9152 32.4766 38.9278 32.4766 39.9944C32.4766 41.0474 32.6791 42.0735 33.0571 43.0591C33.4486 44.0311 33.9887 44.8952 34.7042 45.6513C35.4198 46.4073 36.2433 46.9744 37.1749 47.3929C38.093 47.7979 39.065 48.0004 40.0776 48.0004C41.0767 48.0004 42.0487 47.7979 42.9803 47.3929C43.9119 46.9744 44.7354 46.4073 45.4375 45.6513C46.153 44.8952 46.7066 44.0311 47.0846 43.0591C47.4761 42.0735 47.6652 41.0474 47.6652 39.9944C47.6652 38.9278 47.4761 37.9152 47.0846 36.9296C46.7066 35.9441 46.153 35.08 45.4375 34.3375C44.7219 33.5814 43.9119 33.0009 42.9803 32.5958C42.0487 32.1908 41.0767 31.9883 40.0776 31.9883ZM43.5879 38.6983L39.7941 42.7081C39.6186 42.8971 39.3891 42.9916 39.119 42.9916C38.8625 42.9916 38.633 42.8971 38.4575 42.7081L36.5539 40.6964C36.3648 40.5074 36.2703 40.2644 36.2703 39.9944C36.2703 39.7108 36.3648 39.4813 36.5539 39.2788C36.7429 39.0898 36.9589 38.9818 37.2289 38.9818C37.4854 38.9818 37.7149 39.0898 37.9039 39.2788L39.119 40.5749L42.2513 37.2807C42.4403 37.0916 42.6563 36.9836 42.9263 36.9836C43.1828 36.9836 43.4123 37.0916 43.6014 37.2807C43.7769 37.4832 43.8714 37.7127 43.8714 37.9962C43.8714 38.2662 43.7769 38.5092 43.5879 38.6983Z" fill="white"/>
<path d="M56.2124 25.9776C50.6905 25.9776 43.427 24.0199 40.8348 20.3747C40.4703 19.8751 39.6737 19.8751 39.3227 20.3747C36.7305 24.0199 29.467 25.9776 23.9451 25.9776C23.6751 25.9776 23.459 26.0856 23.27 26.2746C23.081 26.4771 23 26.7066 23 26.9766V39.9916C23 50.9814 32.0592 57.6238 39.8222 59.9595C39.9842 60.0135 40.1597 60.0135 40.3353 59.9595C48.0983 57.6238 57.1575 50.9814 57.1575 39.9916V26.9766C57.1575 26.7066 57.063 26.4771 56.8739 26.2746C56.6984 26.0856 56.4689 25.9776 56.2124 25.9776ZM40.0787 49.9958C38.8231 49.9958 37.6081 49.7393 36.447 49.2262C35.2859 48.7267 34.2598 47.9976 33.3687 47.0661C32.4777 46.121 31.7891 45.0409 31.3031 43.8123C30.8306 42.5972 30.5875 41.3147 30.5875 39.9916C30.5875 38.6685 30.8306 37.3859 31.3031 36.1573C31.7891 34.9287 32.4777 33.8486 33.3687 32.9171C34.2598 31.972 35.2859 31.2564 36.447 30.7434C37.6081 30.2439 38.8231 29.9873 40.0787 29.9873C41.3343 29.9873 42.5494 30.2439 43.7105 30.7434C44.8716 31.2564 45.8976 31.972 46.7887 32.9171C47.6798 33.8486 48.3548 34.9287 48.8409 36.1573C49.3269 37.3859 49.5699 38.6685 49.5699 39.9916C49.5699 41.3147 49.3269 42.5972 48.8409 43.8123C48.3548 45.0409 47.6663 46.121 46.7887 47.0661C45.8976 47.9976 44.8716 48.7267 43.7105 49.2262C42.5494 49.7393 41.3343 49.9958 40.0787 49.9958Z" fill="white"/>
</svg>
