<svg width="80" height="80" viewBox="0 0 80 80" fill="none" xmlns="http://www.w3.org/2000/svg">
<path d="M40 80C62.0625 80 80 62.0625 80 40C80 17.9375 62.0625 0 40 0C17.9375 0 0 17.9375 0 40C0 62.0625 17.9375 80 40 80Z" fill="#F16567"/>
<path d="M50.8795 50.5573C49.7654 50.7612 48.8006 51.3047 48.1076 52.0656L43.2568 45.5706L40.2403 41.5215L32.4682 31.1133L32.3459 32.1052C32.0605 34.1841 32.5225 36.3038 33.6639 38.0838L38.9087 46.3316L42.129 51.3862V51.3998C42.129 51.3998 45.458 51.0737 47.1022 53.7233C46.8304 54.457 46.7625 55.2723 46.9119 56.1011C47.4147 58.6828 49.9963 60.3949 52.6595 59.9193C55.3363 59.4437 57.1163 56.9572 56.6272 54.3755C56.138 51.7938 53.5563 50.0818 50.8795 50.5573ZM52.3334 58.1937C50.6486 58.4926 49.018 57.4056 48.7055 55.7886C48.393 54.1581 49.5208 52.5819 51.2057 52.283C52.8905 51.9841 54.5211 53.0711 54.8336 54.688C55.1461 56.3185 54.0183 57.8947 52.3334 58.1937Z" fill="white"/>
<path d="M38.0251 46.8612L37.2099 45.584L32.821 51.4811C32.1145 50.7202 31.1497 50.1766 30.0355 49.9728C27.3723 49.4973 24.7907 51.2093 24.2879 53.791C23.7988 56.3727 25.5788 58.8592 28.2555 59.3348C30.9323 59.8104 33.514 58.0983 34.0032 55.5166C34.1526 54.6878 34.0847 53.8725 33.8265 53.1388C35.4571 50.4892 38.7861 50.8153 38.7861 50.8153L38.7996 50.8017L39.6693 49.4429L38.0251 46.8612ZM32.2096 55.2041C31.8971 56.8211 30.2665 57.9081 28.5817 57.6091C26.8968 57.2966 25.769 55.734 26.0815 54.1035C26.394 52.4866 28.0246 51.3995 29.7094 51.6985C31.3943 51.9974 32.5221 53.5736 32.2096 55.2041Z" fill="white"/>
<path d="M38.327 35.9656L40.4059 34.9329C40.9902 36.3461 42.5256 36.9711 44.1425 36.9711C45.7187 36.9711 47.1998 36.4412 47.1998 35.0416C47.1998 33.8323 45.8953 33.3432 44.1289 33.1665C41.4114 32.854 38.8976 32.1474 38.8976 29.2804C38.8976 27.052 40.8407 25.9378 42.906 25.6389V23.2746H45.1344V25.5981C46.8329 25.7884 48.4362 26.4542 49.2651 28.0847L47.2813 29.0766C46.8193 28.3429 45.5692 27.6499 44.1289 27.6499C42.2674 27.6499 41.3706 28.3972 41.3706 29.3484C41.3706 30.4626 42.743 30.7751 44.3327 30.9653C47.1046 31.2914 49.6863 31.9844 49.6863 35.0416C49.6863 37.569 47.6482 38.819 45.1344 39.0772V41.4007H42.906V39.0636C41.6967 38.9413 40.6505 38.6016 39.8216 37.963L44.7947 44.6482C51.4935 44.2405 56.7927 38.887 56.7927 32.3377C56.7927 25.5302 51.0587 20 43.993 20C38.6395 20 34.0468 23.1795 32.1445 27.6907L38.327 35.9656Z" fill="white"/>
</svg>
