<svg width="80" height="80" viewBox="0 0 80 80" fill="none" xmlns="http://www.w3.org/2000/svg">
<path d="M40 80C62.0625 80 80 62.0625 80 40C80 17.9375 62.0625 0 40 0C17.9375 0 0 17.9375 0 40C0 62.0625 17.9375 80 40 80Z" fill="#CF5435"/>
<path d="M55.4732 50.4771C47.9012 57.8053 36.0351 57.6428 28.6527 50.003C21.2702 42.3497 21.1212 30.0501 28.1921 22.2071L27.718 21.7195C27.4471 21.4486 27.4471 21.0151 27.718 20.7442C27.9618 20.4733 28.3953 20.4733 28.6527 20.7442L31.9443 24.1577L31.0096 25.133L29.1268 23.1824C22.5706 30.4971 22.7332 41.9162 29.5873 49.0277C36.455 56.1257 47.4812 56.2882 54.5386 49.5018L52.6557 47.5648L53.6039 46.5895L56.8955 50.003C57.1529 50.2739 57.1529 50.7074 56.8955 50.9783C56.6382 51.2492 56.2182 51.2492 55.9609 50.9783L55.4732 50.4771Z" fill="white"/>
<path fill-rule="evenodd" clip-rule="evenodd" d="M32.1395 36.7555C33.792 35.5635 35.6072 33.9786 37.5984 31.9603L41.3641 35.8615L35.7155 41.7133C34.2661 40.1149 33.0606 38.4352 32.1395 36.7555ZM31.5164 35.5229C29.5929 31.4185 29.349 27.5038 31.0423 25.1604L36.6502 30.985C34.7673 32.895 33.0606 34.3986 31.5164 35.5229ZM43.1657 25.3365C44.7912 26.2847 46.4167 27.5309 47.9473 29.0344L42.3123 34.8862L38.5466 30.985C40.4972 28.9125 42.0143 27.0297 43.1657 25.3365ZM41.9872 24.6727C40.89 26.2711 39.4406 28.0456 37.5984 30.0097L31.9769 24.1986C34.2391 22.4377 38.0183 22.6815 41.9872 24.6727ZM45.631 20.3787C48.1776 20.9612 50.6158 22.2209 52.6613 24.1715L48.8955 28.0727C47.2971 26.4879 45.6039 25.1875 43.8972 24.1715C44.2629 23.5891 44.5609 23.0201 44.8183 22.4783C45.2246 21.6385 45.482 20.9341 45.631 20.3787ZM44.3035 20.1349C44.1681 20.6225 43.9513 21.205 43.6262 21.8688C43.3824 22.397 43.0844 22.9389 42.7187 23.5213C40.1992 22.2209 37.6932 21.5707 35.4988 21.6385C38.2486 20.2433 41.3235 19.7285 44.3035 20.1349ZM27.3578 39.3021C27.8996 39.1531 28.5769 38.8822 29.3897 38.4623C29.918 38.1914 30.4598 37.8798 31.0287 37.5141C32.004 39.275 33.2638 41.036 34.7809 42.6885L31.0152 46.5762C29.1459 44.463 27.9267 41.93 27.3578 39.3021ZM27.1275 37.934C26.7347 34.8456 27.2224 31.6623 28.5905 28.8177C28.5092 31.0799 29.1459 33.6806 30.3921 36.295C29.8367 36.6607 29.3084 36.9722 28.7937 37.2296C28.157 37.5547 27.6016 37.785 27.1275 37.934ZM41.4454 46.3865C39.8199 45.4383 38.208 44.1921 36.6637 42.6885L42.3123 36.8368L46.078 40.738C44.1274 42.8105 42.5968 44.6933 41.4454 46.3865ZM42.6374 47.0503C43.7211 45.4383 45.1705 43.6638 47.0127 41.7133L52.6342 47.5244C50.3856 49.2718 46.5928 49.028 42.6374 47.0503ZM52.4716 34.9675C50.8326 36.1595 49.0174 37.7444 47.0127 39.7627L43.247 35.8615L48.8955 30.0097C50.3585 31.6081 51.5505 33.2878 52.4716 34.9675ZM53.1083 36.2001C55.0318 40.3045 55.262 44.2192 53.5688 46.5491L47.9609 40.738C49.8437 38.828 51.564 37.3244 53.1083 36.2001ZM57.2668 32.4209C56.725 32.5699 56.0341 32.8408 55.2349 33.2607C54.7067 33.5316 54.1648 33.8432 53.5959 34.2089C52.6206 32.4344 51.3473 30.687 49.8302 29.0344L53.5959 25.1468C55.4652 27.26 56.6979 29.7795 57.2668 32.4209ZM57.4835 33.789C57.8764 36.8774 57.3887 40.0607 56.0341 42.9053C56.1019 40.6431 55.4652 38.0424 54.219 35.428C54.7744 35.0623 55.3162 34.7507 55.8174 34.4934C56.4676 34.1683 57.023 33.938 57.4835 33.789ZM38.9801 51.3443C36.447 50.7618 34.0088 49.4885 31.9634 47.5515L35.7155 43.6503C37.3139 45.2216 39.0072 46.5355 40.7139 47.5515C40.3617 48.1339 40.0502 48.6893 39.7928 49.2447C39.3864 50.0845 39.1291 50.7889 38.9801 51.3443ZM40.3075 51.5881C40.4565 51.1004 40.6733 50.518 40.9848 49.8542C41.2422 49.326 41.5402 48.7706 41.8924 48.2017C44.4119 49.4885 46.9179 50.1522 49.1123 50.071C46.3625 51.4797 43.2876 51.9809 40.3075 51.5881Z" fill="white"/>
<path d="M40.3007 58.6202V55.166H41.6417V58.6202H44.9604C45.3261 58.6202 45.6242 58.9317 45.6242 59.311C45.6242 59.6903 45.3261 60.0018 44.9604 60.0018H36.982C36.6027 60.0018 36.3047 59.6903 36.3047 59.311C36.3047 58.9317 36.6027 58.6202 36.982 58.6202H40.3007Z" fill="white"/>
</svg>
