<svg width="80" height="80" viewBox="0 0 80 80" fill="none" xmlns="http://www.w3.org/2000/svg">
<path d="M40 80C62.0625 80 80 62.0625 80 40C80 17.9375 62.0625 0 40 0C17.9375 0 0 17.9375 0 40C0 62.0625 17.9375 80 40 80Z" fill="#F16567"/>
<path d="M59.7789 32.3552L59.6304 32.0447C59.5224 31.8287 59.3874 31.6397 59.2389 31.4912C59.1174 31.3562 58.9824 31.2482 58.8339 31.1537L57.6865 30.4113C56.431 29.6148 55.0811 28.9938 53.6636 28.5888C52.1112 28.1568 50.5182 27.9678 48.9118 28.0488L29.6479 28.9668L25.2065 23.2565C25.085 23.0945 24.896 23 24.6935 23H22.6821C22.4661 23 22.2501 23.108 22.1286 23.297C22.0071 23.486 21.9801 23.729 22.0611 23.945L24.2751 29.6553C23.3166 29.9523 22.3716 30.3168 21.4806 30.7758C21.0487 30.9917 20.8057 31.4642 20.8327 31.9502C20.8732 32.3957 21.1297 32.7872 21.5346 32.9762L20.4412 33.3947C20.1442 33.5162 19.9552 33.8267 20.0092 34.1641C20.0767 34.4881 20.3467 34.7311 20.6707 34.7311H24.6935C24.761 34.7311 24.8285 34.7176 24.896 34.6906L25.814 34.3801C27.5554 34.9066 29.3374 35.2711 31.1328 35.4736L24.383 38.943C24.0861 39.0915 23.9511 39.429 24.0321 39.753C24.1266 40.05 24.3966 40.2389 24.68 40.2389C24.707 40.2389 24.734 40.2389 24.761 40.2389L29.2834 39.7125C30.3499 39.591 31.3758 39.3075 32.3613 38.862L32.4693 38.808C32.5233 38.835 32.5638 38.8485 32.6313 38.8485L37.3156 39.5505C37.3426 39.5505 37.3831 39.5505 37.4101 39.5505H38.6656C39.4486 39.5505 40.083 38.9025 40.083 38.0925V36.8776C40.083 36.4321 39.8806 36.0271 39.5701 35.7571L53.8391 36.0946C53.9201 36.0946 53.9876 36.0946 54.0821 36.0946C54.6761 36.0946 55.2836 36.0406 55.8775 35.9326L58.1995 35.5411C58.5235 35.4736 58.8474 35.3386 59.1174 35.1361C59.3874 34.9201 59.6169 34.6501 59.7654 34.3396C60.0759 33.7052 60.0759 32.9762 59.7789 32.3552ZM34.0622 31.9637C34.0622 32.3417 33.7653 32.6522 33.4008 32.6522C33.0228 32.6522 32.7258 32.3417 32.7258 31.9637V31.2752C32.7258 30.8972 33.0228 30.5868 33.4008 30.5868C33.7653 30.5868 34.0622 30.8972 34.0622 31.2752V31.9637ZM36.7487 38.0655L34.7372 37.7685L36.7487 36.8506V38.0655ZM36.7487 31.9637C36.7487 32.3417 36.4382 32.6522 36.0737 32.6522C35.7092 32.6522 35.3987 32.3417 35.3987 31.9637V31.2752C35.3987 30.8972 35.7092 30.5868 36.0737 30.5868C36.4382 30.5868 36.7487 30.8972 36.7487 31.2752V31.9637ZM39.4216 31.9637C39.4216 32.3417 39.1246 32.6522 38.7466 32.6522C38.3821 32.6522 38.0851 32.3417 38.0851 31.9637V31.2752C38.0851 30.8972 38.3821 30.5868 38.7466 30.5868C39.1246 30.5868 39.4216 30.8972 39.4216 31.2752V31.9637ZM42.0945 31.9637C42.0945 32.3417 41.7975 32.6522 41.433 32.6522C41.055 32.6522 40.758 32.3417 40.758 31.9637V31.2752C40.758 30.8972 41.055 30.5868 41.433 30.5868C41.7975 30.5868 42.0945 30.8972 42.0945 31.2752V31.9637ZM44.7809 31.9637C44.7809 32.3417 44.4704 32.6522 44.1059 32.6522C43.7414 32.6522 43.4444 32.3417 43.4444 31.9637V31.2752C43.4444 30.8972 43.7414 30.5868 44.1059 30.5868C44.4704 30.5868 44.7809 30.8972 44.7809 31.2752V31.9637ZM47.4538 31.9637C47.4538 32.3417 47.1568 32.6522 46.7923 32.6522C46.4143 32.6522 46.1174 32.3417 46.1174 31.9637V31.2752C46.1174 30.8972 46.4143 30.5868 46.7923 30.5868C47.1568 30.5868 47.4538 30.8972 47.4538 31.2752V31.9637ZM52.1382 33.3407C52.1382 33.7187 51.8412 34.0291 51.4767 34.0291H50.1402C49.7622 34.0291 49.4652 33.7187 49.4652 33.3407V30.5868C49.4652 30.2088 49.7622 29.8983 50.1402 29.8983H51.4767C51.8412 29.8983 52.1382 30.2088 52.1382 30.5868V33.3407ZM54.9191 31.2752C54.5006 31.2752 54.1496 30.9242 54.1496 30.4923V30.1818C54.9596 30.4653 55.729 30.8297 56.4715 31.2752H54.9191Z" fill="white"/>
<path d="M52.1428 48.501H48.7949V42.9932C48.7949 42.6152 48.4979 42.3047 48.1334 42.3047H32.0554C31.691 42.3047 31.394 42.6152 31.394 42.9932V48.501H28.0461C27.6816 48.501 27.3711 48.8115 27.3711 49.1895V55.3993C27.3711 55.7773 27.6816 56.0877 28.0461 56.0877H52.1428C52.5208 56.0877 52.8178 55.7773 52.8178 55.3993V49.1895C52.8178 48.8115 52.5208 48.501 52.1428 48.501ZM28.7075 49.8779H30.0575V51.2684C30.0575 51.6464 30.3545 51.9569 30.719 51.9569H33.4054C33.7699 51.9569 34.0669 51.6464 34.0669 51.2684V49.8779H35.4033V54.7108H28.7075V49.8779ZM32.7304 48.501V43.6816H34.0669V45.0586C34.0669 45.4366 34.3774 45.7471 34.7419 45.7471H37.4148C37.7793 45.7471 38.0897 45.4366 38.0897 45.0586V43.6816H39.4262V48.501H32.7304ZM36.7533 49.8779H38.0897V51.2684C38.0897 51.6464 38.3867 51.9569 38.7512 51.9569H41.4376C41.8021 51.9569 42.0991 51.6464 42.0991 51.2684V49.8779H43.4491V54.7108H36.7533V49.8779ZM40.7627 48.501V43.6816H42.0991V45.0586C42.0991 45.4366 42.4096 45.7471 42.7741 45.7471H45.447C45.825 45.7471 46.122 45.4366 46.122 45.0586V43.6816H47.4584V48.501H40.7627ZM51.4813 54.7108H44.7855V49.8779H46.122V51.2684C46.122 51.6464 46.419 51.9569 46.797 51.9569H49.4699C49.8344 51.9569 50.1449 51.6464 50.1449 51.2684V49.8779H51.4813V54.7108Z" fill="white"/>
</svg>
